<svg width="213" height="48" viewBox="0 0 213 48" fill="none" xmlns="http://www.w3.org/2000/svg">
<path d="M2.2 15.54V10H19.06V13.02H5.72V15.54H17.2L19.06 16.9L17.2 18.26H5.72V20.98H19.58V24H2.2V18.26L0.36 16.9L2.2 15.54ZM26.1302 15.32V24H22.6102V10H26.5302L33.1102 20.3L39.6902 10H43.5902V24H40.0902V15.3L34.6502 24H31.5302L26.1302 15.32ZM60.215 14.6C60.215 14.2667 60.155 14 60.035 13.8C59.915 13.5867 59.7683 13.4267 59.595 13.32C59.4217 13.2 59.2417 13.12 59.055 13.08C58.8817 13.04 58.7417 13.02 58.635 13.02H50.095V16.2H58.635C58.715 16.2 58.8417 16.18 59.015 16.14C59.1883 16.0867 59.3617 16 59.535 15.88C59.7217 15.76 59.8817 15.6 60.015 15.4C60.1483 15.1867 60.215 14.92 60.215 14.6ZM63.735 14.6C63.735 15.52 63.5617 16.28 63.215 16.88C62.8683 17.48 62.4483 17.9533 61.955 18.3C61.475 18.6467 60.975 18.8867 60.455 19.02C59.935 19.1533 59.5017 19.22 59.155 19.22H50.095V24H46.575V10H59.155C59.5283 10 59.975 10.0667 60.495 10.2C61.0283 10.3333 61.535 10.5733 62.015 10.92C62.495 11.2533 62.9017 11.72 63.235 12.32C63.5683 12.9067 63.735 13.6667 63.735 14.6ZM81.0548 14.6C81.0548 14.2667 80.9948 14 80.8748 13.8C80.7548 13.5867 80.6082 13.4267 80.4348 13.32C80.2615 13.2 80.0815 13.12 79.8948 13.08C79.7215 13.04 79.5815 13.02 79.4748 13.02H70.9348V16.2H79.4748C79.5548 16.2 79.6815 16.18 79.8548 16.14C80.0282 16.0867 80.2015 16 80.3748 15.88C80.5615 15.76 80.7215 15.6 80.8548 15.4C80.9882 15.1867 81.0548 14.92 81.0548 14.6ZM67.4148 15.54V10H79.9948C80.3682 10 80.8148 10.0667 81.3348 10.2C81.8682 10.3333 82.3748 10.5733 82.8548 10.92C83.3348 11.2533 83.7415 11.72 84.0748 12.32C84.4082 12.9067 84.5748 13.6667 84.5748 14.6C84.5748 15.2133 84.4948 15.7533 84.3348 16.22C84.1748 16.6867 83.9615 17.0933 83.6948 17.44C83.4415 17.7733 83.1482 18.0533 82.8148 18.28C82.4948 18.5067 82.1682 18.6867 81.8348 18.82L84.2748 24H80.5148L78.2748 19.22H70.9348V24H67.4148V18.26L65.5748 16.9L67.4148 15.54ZM97.5672 12.62L94.3672 18.18H100.767L97.5672 12.62ZM104.107 24L102.487 21.2H92.6272L91.0072 24H87.2672L95.3072 10H99.8072L107.847 24H104.107ZM110.852 24V10H114.372V24H110.852ZM117.391 24V20.98L129.331 13.02H117.391V10H134.551V13.02L122.611 20.98H134.551V24H117.391ZM147.743 12.62L144.543 18.18H150.943L147.743 12.62ZM154.283 24L152.663 21.2H142.803L141.183 24H137.443L145.483 10H149.983L158.023 24H154.283ZM161.028 24V10H164.548V20.98H176.968V24H161.028Z" fill="#244469"/>
<path d="M212.378 0.136657H209.8V0H181V13.1717H199.085C197.823 16.8209 195.549 20.0098 192.546 22.3441L192.55 22.3409L197.598 26.8549L202.454 30.965C201.754 31.6203 213 23.0504 213 6.58585C213 4.37796 212.779 2.22271 212.378 0.136657Z" fill="#244469"/>
</svg>
