<svg width="24" height="24" viewBox="0 0 24 24" fill="none" xmlns="http://www.w3.org/2000/svg">
<path d="M17.2496 18C14.5496 18 13.4771 14.868 12.4399 11.8395C11.4574 8.9685 10.4396 6 8.24961 6C7.73816 6.03013 7.24727 6.21185 6.83948 6.52199C6.4317 6.83214 6.12548 7.25668 5.95986 7.7415L4.53711 7.263C4.57536 7.1505 5.49036 4.5 8.24961 4.5C11.5121 4.5 12.7586 8.14125 13.8596 11.3535C14.7664 14.0002 15.6221 16.5 17.2496 16.5C17.761 16.4699 18.2518 16.2883 18.6596 15.9783C19.0673 15.6683 19.3736 15.2439 19.5394 14.7593L20.9614 15.237C20.9239 15.3495 20.0089 18 17.2496 18Z" fill="#D5535B"/>
<path d="M3 21V12.75H4.5V11.25H3V1.5H1.5V21C1.5 21.3978 1.65804 21.7794 1.93934 22.0607C2.22064 22.342 2.60218 22.5 3 22.5H22.5V21H3Z" fill="#D5535B"/>
<path d="M6 11.25H7.5V12.75H6V11.25ZM9 11.25H10.5V12.75H9V11.25ZM15 11.25H16.5V12.75H15V11.25ZM18 11.25H19.5V12.75H18V11.25ZM21 11.25H22.5V12.75H21V11.25Z" fill="#D5535B"/>
</svg>
