<svg width="20" height="20" viewBox="0 0 20 20" fill="none" xmlns="http://www.w3.org/2000/svg">
<path d="M8.3335 4.37533V4.58366H11.6668V4.37533C11.6668 3.9333 11.4912 3.50937 11.1787 3.19681C10.8661 2.88425 10.4422 2.70866 10.0002 2.70866C9.55814 2.70866 9.13421 2.88425 8.82165 3.19681C8.50909 3.50937 8.3335 3.9333 8.3335 4.37533ZM7.29183 4.58366V4.37533C7.29183 3.65703 7.57717 2.96816 8.08508 2.46024C8.59299 1.95233 9.28187 1.66699 10.0002 1.66699C10.7185 1.66699 11.4073 1.95233 11.9152 2.46024C12.4232 2.96816 12.7085 3.65703 12.7085 4.37533V4.58366H17.396C17.5341 4.58366 17.6666 4.63853 17.7643 4.73621C17.862 4.83388 17.9168 4.96636 17.9168 5.10449C17.9168 5.24263 17.862 5.3751 17.7643 5.47278C17.6666 5.57045 17.5341 5.62533 17.396 5.62533H16.1806L15.3472 15.5653C15.2839 16.3202 14.9393 17.0237 14.3818 17.5364C13.8242 18.0492 13.0943 18.3337 12.3368 18.3337H7.6635C6.90608 18.3336 6.17632 18.049 5.61883 17.5363C5.06134 17.0235 4.71681 16.3201 4.6535 15.5653L3.82016 5.62533H2.60433C2.4662 5.62533 2.33372 5.57045 2.23604 5.47278C2.13837 5.3751 2.0835 5.24263 2.0835 5.10449C2.0835 4.96636 2.13837 4.83388 2.23604 4.73621C2.33372 4.63853 2.4662 4.58366 2.60433 4.58366H7.29183ZM5.69141 15.4782C5.73289 15.9728 5.95862 16.4336 6.32387 16.7696C6.68913 17.1055 7.16725 17.292 7.6635 17.292H12.3368C12.8331 17.2921 13.3114 17.1056 13.6767 16.7697C14.0421 16.4338 14.2678 15.9728 14.3093 15.4782L15.1352 5.62533H4.86516L5.69141 15.4782ZM8.9585 8.43783C8.9585 8.36943 8.94502 8.3017 8.91885 8.23851C8.89268 8.17532 8.85431 8.1179 8.80595 8.06954C8.75758 8.02118 8.70017 7.98281 8.63698 7.95664C8.57379 7.93046 8.50606 7.91699 8.43766 7.91699C8.36927 7.91699 8.30154 7.93046 8.23835 7.95664C8.17516 7.98281 8.11774 8.02118 8.06938 8.06954C8.02101 8.1179 7.98265 8.17532 7.95648 8.23851C7.9303 8.3017 7.91683 8.36943 7.91683 8.43783V14.4795C7.91683 14.5479 7.9303 14.6156 7.95648 14.6788C7.98265 14.742 8.02101 14.7994 8.06938 14.8478C8.11774 14.8961 8.17516 14.9345 8.23835 14.9607C8.30154 14.9869 8.36927 15.0003 8.43766 15.0003C8.50606 15.0003 8.57379 14.9869 8.63698 14.9607C8.70017 14.9345 8.75758 14.8961 8.80595 14.8478C8.85431 14.7994 8.89268 14.742 8.91885 14.6788C8.94502 14.6156 8.9585 14.5479 8.9585 14.4795V8.43783ZM11.5627 7.91699C11.8502 7.91699 12.0835 8.15033 12.0835 8.43783V14.4795C12.0835 14.6176 12.0286 14.7501 11.9309 14.8478C11.8333 14.9455 11.7008 15.0003 11.5627 15.0003C11.4245 15.0003 11.2921 14.9455 11.1944 14.8478C11.0967 14.7501 11.0418 14.6176 11.0418 14.4795V8.43783C11.0418 8.15033 11.2752 7.91699 11.5627 7.91699Z" fill="#244469"/>
</svg>
