<svg width="39" height="39" viewBox="0 0 39 39" fill="none" xmlns="http://www.w3.org/2000/svg">
<path d="M34.7754 16.3991H33.5V16.3334H19.25V22.6667H28.1982C26.8927 26.3535 23.3849 29.0001 19.25 29.0001C14.0036 29.0001 9.74999 24.7465 9.74999 19.5001C9.74999 14.2537 14.0036 10.0001 19.25 10.0001C21.6717 10.0001 23.8749 10.9137 25.5524 12.406L30.0309 7.9275C27.2031 5.29204 23.4205 3.66675 19.25 3.66675C10.506 3.66675 3.41666 10.7561 3.41666 19.5001C3.41666 28.244 10.506 35.3334 19.25 35.3334C27.9939 35.3334 35.0833 28.244 35.0833 19.5001C35.0833 18.4385 34.9741 17.4022 34.7754 16.3991Z" fill="#FFC107"/>
<path d="M5.24225 12.1305L10.4443 15.9455C11.8519 12.4606 15.2608 10.0001 19.25 10.0001C21.6717 10.0001 23.8749 10.9137 25.5525 12.406L30.0309 7.9275C27.2031 5.29204 23.4205 3.66675 19.25 3.66675C13.1684 3.66675 7.89433 7.10021 5.24225 12.1305Z" fill="#FF3D00"/>
<path d="M19.25 35.3334C23.3398 35.3334 27.0558 33.7683 29.8655 31.2231L24.9651 27.0763C23.322 28.3259 21.3143 29.0017 19.25 29.0001C15.1318 29.0001 11.635 26.3741 10.3176 22.7095L5.15439 26.6876C7.77481 31.8152 13.0964 35.3334 19.25 35.3334Z" fill="#4CAF50"/>
<path d="M34.7754 16.399H33.5V16.3333H19.25V22.6666H28.1982C27.5737 24.4212 26.4489 25.9545 24.9627 27.077L24.965 27.0754L29.8655 31.2221C29.5187 31.5372 35.0833 27.4166 35.0833 19.4999C35.0833 18.4383 34.9741 17.402 34.7754 16.399Z" fill="#1976D2"/>
</svg>
