<svg width="14" height="14" viewBox="0 0 14 14" fill="none" xmlns="http://www.w3.org/2000/svg">
<path d="M1.16683 12.833H2.08183L10.9968 3.91802L10.0818 3.00302L1.16683 11.918V12.833ZM0.333496 13.6664V11.5664L11.3168 0.573021C11.4029 0.496909 11.4974 0.438021 11.6002 0.396354C11.7029 0.354687 11.8104 0.333576 11.9227 0.33302C12.0349 0.332465 12.1432 0.350243 12.2477 0.386354C12.3532 0.421354 12.4504 0.484687 12.5393 0.576354L13.4285 1.47135C13.5202 1.55969 13.5829 1.65691 13.6168 1.76302C13.6502 1.86858 13.6668 1.97413 13.6668 2.07969C13.6668 2.19302 13.6479 2.30135 13.6102 2.40469C13.5718 2.50747 13.5113 2.60163 13.4285 2.68719L2.43266 13.6664H0.333496ZM10.5318 3.46802L10.0818 3.00302L10.9968 3.91802L10.5318 3.46802Z" fill="#244469"/>
</svg>
