<svg width="24" height="25" viewBox="0 0 24 25" fill="none" xmlns="http://www.w3.org/2000/svg">
<path d="M17.25 13.25L18.9225 16.49L22.5 17L19.875 19.3752L21 23L17.25 20.906L13.5 23L14.625 19.3752L12 17L15.675 16.49L17.25 13.25Z" fill="#244469"/>
<path d="M18.75 4.25H16.5V3.5C16.4988 3.10254 16.3404 2.7217 16.0593 2.44065C15.7783 2.1596 15.3975 2.00119 15 2H9C8.60254 2.00119 8.2217 2.1596 7.94065 2.44065C7.6596 2.7217 7.50119 3.10254 7.5 3.5V4.25H5.25C4.85254 4.25119 4.4717 4.4096 4.19065 4.69065C3.9096 4.9717 3.75119 5.35254 3.75 5.75V21.5C3.75119 21.8975 3.9096 22.2783 4.19065 22.5593C4.4717 22.8404 4.85254 22.9988 5.25 23H10.5V21.5H5.25V5.75H7.5V8H16.5V5.75H18.75V11H20.25V5.75C20.2488 5.35254 20.0904 4.9717 19.8093 4.69065C19.5283 4.4096 19.1475 4.25119 18.75 4.25ZM15 6.5H9V3.5H15V6.5Z" fill="#244469"/>
</svg>
