<svg width="30" height="30" viewBox="0 0 30 30" fill="none" xmlns="http://www.w3.org/2000/svg">
<g clip-path="url(#clip0_201_1919)">
<path d="M10.0001 13.45H9.27513C8.28576 13.4143 7.2996 13.5822 6.37784 13.9435C5.45609 14.3047 4.61841 14.8516 3.9168 15.55L3.7168 15.7834V22.6834H7.1168V18.7667L7.57513 18.25L7.78346 18.0084C8.8684 16.8938 10.2191 16.0736 11.7085 15.625C10.9631 15.0574 10.375 14.3087 10.0001 13.45Z" fill="#D5535B"/>
<path d="M26.1164 15.5251C25.4148 14.8266 24.5771 14.2798 23.6554 13.9186C22.7336 13.5573 21.7475 13.3894 20.7581 13.4251C20.4547 13.4267 20.1515 13.4434 19.8498 13.4751C19.4679 14.2807 18.8959 14.9814 18.1831 15.5168C19.7733 15.9563 21.2137 16.8205 22.3498 18.0168L22.5581 18.2501L23.0081 18.7668V22.6918H26.2914V15.7585L26.1164 15.5251Z" fill="#D5535B"/>
<path d="M9.24989 11.8248H9.50823C9.3882 10.7942 9.56904 9.75086 10.0289 8.82075C10.4888 7.89063 11.2081 7.1135 12.0999 6.58317C11.7766 6.0893 11.3306 5.68784 10.8056 5.41813C10.2805 5.14841 9.69442 5.01967 9.10467 5.04453C8.51492 5.06938 7.94174 5.24697 7.44124 5.5599C6.94075 5.87284 6.5301 6.31039 6.24952 6.82971C5.96894 7.34903 5.82804 7.93232 5.84062 8.52246C5.8532 9.1126 6.01882 9.68936 6.32127 10.1963C6.62373 10.7032 7.05264 11.1228 7.56602 11.4141C8.07939 11.7055 8.65962 11.8585 9.24989 11.8582V11.8248Z" fill="#D5535B"/>
<path d="M20.3583 11.2C20.3677 11.3916 20.3677 11.5835 20.3583 11.775C20.5182 11.8007 20.6797 11.8146 20.8416 11.8167H20.9999C21.5876 11.7854 22.1572 11.6024 22.6531 11.2856C23.1491 10.9688 23.5546 10.529 23.8301 10.009C24.1057 9.48895 24.2419 8.90644 24.2255 8.31816C24.209 7.72987 24.0406 7.15586 23.7365 6.65201C23.4324 6.14816 23.003 5.73163 22.4901 5.44299C21.9773 5.15434 21.3984 5.00341 20.8099 5.00489C20.2214 5.00637 19.6433 5.16021 19.1319 5.45144C18.6205 5.74266 18.1932 6.16134 17.8916 6.66671C18.6458 7.15916 19.266 7.83114 19.6965 8.62236C20.1271 9.41358 20.3544 10.2993 20.3583 11.2Z" fill="#D5535B"/>
<path d="M14.8915 14.9334C16.9488 14.9334 18.6165 13.2657 18.6165 11.2084C18.6165 9.15114 16.9488 7.4834 14.8915 7.4834C12.8342 7.4834 11.1665 9.15114 11.1665 11.2084C11.1665 13.2657 12.8342 14.9334 14.8915 14.9334Z" fill="#D5535B"/>
<path d="M15.0918 16.9166C14.0036 16.8732 12.9178 17.0501 11.8996 17.4367C10.8815 17.8234 9.95192 18.4118 9.16683 19.1666L8.9585 19.4V24.675C8.96175 24.8468 8.99882 25.0163 9.06759 25.1738C9.13636 25.3313 9.23549 25.4737 9.35931 25.5929C9.48312 25.712 9.62921 25.8057 9.78921 25.8684C9.94922 25.9311 10.12 25.9616 10.2918 25.9583H19.8668C20.0387 25.9616 20.2094 25.9311 20.3694 25.8684C20.5295 25.8057 20.6755 25.712 20.7994 25.5929C20.9232 25.4737 21.0223 25.3313 21.0911 25.1738C21.1598 25.0163 21.1969 24.8468 21.2002 24.675V19.4166L21.0002 19.1666C20.2204 18.4091 19.2942 17.8188 18.2782 17.4319C17.2622 17.045 16.178 16.8696 15.0918 16.9166Z" fill="#D5535B"/>
</g>
<defs>
<clipPath id="clip0_201_1919">
<rect width="30" height="30" fill="white"/>
</clipPath>
</defs>
</svg>
