<svg width="17" height="16" viewBox="0 0 17 16" fill="none" xmlns="http://www.w3.org/2000/svg">
<path d="M2.116 16C1.65533 16 1.271 15.846 0.963 15.538C0.655 15.23 0.500667 14.8453 0.5 14.384V1.616C0.5 1.15533 0.654333 0.771 0.963 0.463C1.27167 0.155 1.656 0.000666667 2.116 0H12.077L16.5 4.423V14.385C16.5 14.845 16.346 15.2293 16.038 15.538C15.73 15.8467 15.3453 16.0007 14.884 16H2.116ZM2.116 15H14.885C15.0643 15 15.2117 14.9423 15.327 14.827C15.4423 14.7117 15.5 14.5643 15.5 14.385V5H11.5V1H2.116C1.936 1 1.78833 1.05767 1.673 1.173C1.55767 1.28833 1.5 1.436 1.5 1.616V14.385C1.5 14.5643 1.55767 14.7117 1.673 14.827C1.78833 14.9423 1.936 15 2.116 15ZM4 12H13V11H4V12ZM4 5H8.5V4H4V5ZM4 8.5H13V7.5H4V8.5Z" fill="white"/>
</svg>
