<svg width="24" height="22" viewBox="0 0 24 22" fill="none" xmlns="http://www.w3.org/2000/svg">
<path d="M9 2.5H24V4H9V2.5ZM9 11.5V10H24V11.5H9ZM9 19V17.5H24V19H9ZM3 8.5C3.41406 8.5 3.80078 8.57812 4.16016 8.73438C4.51953 8.89062 4.83984 9.10547 5.12109 9.37891C5.40234 9.65234 5.61719 9.96875 5.76562 10.3281C5.91406 10.6875 5.99219 11.0781 6 11.5C6 11.9141 5.92188 12.3008 5.76562 12.6602C5.60938 13.0195 5.39453 13.3398 5.12109 13.6211C4.84766 13.9023 4.53125 14.1172 4.17188 14.2656C3.8125 14.4141 3.42188 14.4922 3 14.5C2.58594 14.5 2.19922 14.4219 1.83984 14.2656C1.48047 14.1094 1.16016 13.8945 0.878906 13.6211C0.597656 13.3477 0.382812 13.0312 0.234375 12.6719C0.0859375 12.3125 0.0078125 11.9219 0 11.5C0 11.0859 0.078125 10.6992 0.234375 10.3398C0.390625 9.98047 0.605469 9.66016 0.878906 9.37891C1.15234 9.09766 1.46875 8.88281 1.82812 8.73438C2.1875 8.58594 2.57812 8.50781 3 8.5ZM3 13.1875C3.23438 13.1875 3.45312 13.1445 3.65625 13.0586C3.85938 12.9727 4.03516 12.8516 4.18359 12.6953C4.33203 12.5391 4.45312 12.3594 4.54688 12.1562C4.64062 11.9531 4.6875 11.7344 4.6875 11.5C4.6875 11.2656 4.64453 11.0469 4.55859 10.8438C4.47266 10.6406 4.35156 10.4648 4.19531 10.3164C4.03906 10.168 3.85938 10.0469 3.65625 9.95312C3.45312 9.85938 3.23438 9.8125 3 9.8125C2.76562 9.8125 2.54688 9.85547 2.34375 9.94141C2.14062 10.0273 1.96484 10.1484 1.81641 10.3047C1.66797 10.4609 1.54688 10.6406 1.45312 10.8438C1.35938 11.0469 1.3125 11.2656 1.3125 11.5C1.3125 11.7344 1.35547 11.9531 1.44141 12.1562C1.52734 12.3594 1.64844 12.5352 1.80469 12.6836C1.96094 12.832 2.14062 12.9531 2.34375 13.0469C2.54688 13.1406 2.76562 13.1875 3 13.1875ZM3 16C3.41406 16 3.80078 16.0781 4.16016 16.2344C4.51953 16.3906 4.83984 16.6055 5.12109 16.8789C5.40234 17.1523 5.61719 17.4688 5.76562 17.8281C5.91406 18.1875 5.99219 18.5781 6 19C6 19.4141 5.92188 19.8008 5.76562 20.1602C5.60938 20.5195 5.39453 20.8398 5.12109 21.1211C4.84766 21.4023 4.53125 21.6172 4.17188 21.7656C3.8125 21.9141 3.42188 21.9922 3 22C2.58594 22 2.19922 21.9219 1.83984 21.7656C1.48047 21.6094 1.16016 21.3945 0.878906 21.1211C0.597656 20.8477 0.382812 20.5312 0.234375 20.1719C0.0859375 19.8125 0.0078125 19.4219 0 19C0 18.5859 0.078125 18.1992 0.234375 17.8398C0.390625 17.4805 0.605469 17.1602 0.878906 16.8789C1.15234 16.5977 1.46875 16.3828 1.82812 16.2344C2.1875 16.0859 2.57812 16.0078 3 16ZM3 20.6875C3.23438 20.6875 3.45312 20.6445 3.65625 20.5586C3.85938 20.4727 4.03516 20.3516 4.18359 20.1953C4.33203 20.0391 4.45312 19.8594 4.54688 19.6562C4.64062 19.4531 4.6875 19.2344 4.6875 19C4.6875 18.7656 4.64453 18.5469 4.55859 18.3438C4.47266 18.1406 4.35156 17.9648 4.19531 17.8164C4.03906 17.668 3.85938 17.5469 3.65625 17.4531C3.45312 17.3594 3.23438 17.3125 3 17.3125C2.76562 17.3125 2.54688 17.3555 2.34375 17.4414C2.14062 17.5273 1.96484 17.6484 1.81641 17.8047C1.66797 17.9609 1.54688 18.1406 1.45312 18.3438C1.35938 18.5469 1.3125 18.7656 1.3125 19C1.3125 19.2344 1.35547 19.4531 1.44141 19.6562C1.52734 19.8594 1.64844 20.0352 1.80469 20.1836C1.96094 20.332 2.14062 20.4531 2.34375 20.5469C2.54688 20.6406 2.76562 20.6875 3 20.6875ZM2.25 3.69531L5.47266 0.472656L6.52734 1.52734L2.25 5.80469L0.222656 3.77734L1.27734 2.72266L2.25 3.69531Z" fill="#244469"/>
</svg>
