<svg width="24" height="24" viewBox="0 0 24 24" fill="none" xmlns="http://www.w3.org/2000/svg">
<path d="M19.2665 2.99914H19.2653V2.03434C19.2653 1.97982 19.2545 1.92582 19.2337 1.87545C19.2128 1.82508 19.1822 1.7793 19.1437 1.74075C19.1051 1.7022 19.0593 1.67161 19.009 1.65075C18.9586 1.62988 18.9046 1.61914 18.8501 1.61914H10.9613L4.73328 7.84714V21.9637C4.73328 22.1931 4.91904 22.3789 5.14848 22.3789H18.8501C18.9046 22.3789 18.9586 22.3682 19.009 22.3473C19.0593 22.3264 19.1051 22.2958 19.1437 22.2573C19.1822 22.2187 19.2128 22.173 19.2337 22.1226C19.2545 22.0722 19.2653 22.0182 19.2653 21.9637V21.3762H19.2665V2.99914ZM7.12296 19.9897V8.67754H11.3765C11.4866 8.67754 11.5922 8.6338 11.6701 8.55593C11.7479 8.47807 11.7917 8.37246 11.7917 8.26234V4.00882H16.8768V19.9897H7.12296Z" fill="#244469"/>
</svg>
