<svg width="20" height="20" viewBox="0 0 20 20" fill="none" xmlns="http://www.w3.org/2000/svg">
<path d="M17.43 10.98C17.47 10.66 17.5 10.34 17.5 10C17.5 9.66005 17.47 9.34005 17.43 9.02005L19.54 7.37005C19.73 7.22005 19.78 6.95005 19.66 6.73005L17.66 3.27005C17.601 3.16687 17.5072 3.08807 17.3955 3.04775C17.2837 3.00744 17.1612 3.00825 17.05 3.05005L14.56 4.05005C14.04 3.65005 13.48 3.32005 12.87 3.07005L12.49 0.420047C12.4734 0.302388 12.4145 0.194807 12.3243 0.117483C12.2341 0.0401581 12.1188 -0.00159773 12 4.67889e-05H7.99996C7.74996 4.67889e-05 7.53996 0.180047 7.50996 0.420047L7.12996 3.07005C6.51996 3.32005 5.95996 3.66005 5.43996 4.05005L2.94996 3.05005C2.89198 3.03038 2.83119 3.02025 2.76996 3.02005C2.59996 3.02005 2.42996 3.11005 2.33996 3.27005L0.339961 6.73005C0.209961 6.95005 0.269962 7.22005 0.459962 7.37005L2.56996 9.02005C2.52996 9.34005 2.49996 9.67005 2.49996 10C2.49996 10.33 2.52996 10.66 2.56996 10.98L0.459962 12.63C0.269962 12.78 0.219961 13.05 0.339961 13.27L2.33996 16.73C2.39891 16.8332 2.49268 16.912 2.60446 16.9523C2.71624 16.9927 2.83873 16.9918 2.94996 16.95L5.43996 15.95C5.95996 16.35 6.51996 16.68 7.12996 16.93L7.50996 19.58C7.53996 19.82 7.74996 20 7.99996 20H12C12.25 20 12.46 19.82 12.49 19.58L12.87 16.93C13.48 16.68 14.04 16.34 14.56 15.95L17.05 16.95C17.11 16.97 17.17 16.98 17.23 16.98C17.4 16.98 17.57 16.89 17.66 16.73L19.66 13.27C19.78 13.05 19.73 12.78 19.54 12.63L17.43 10.98ZM15.45 9.27005C15.49 9.58005 15.5 9.79005 15.5 10C15.5 10.21 15.48 10.43 15.45 10.73L15.31 11.86L16.2 12.56L17.28 13.4L16.58 14.61L15.31 14.1L14.27 13.68L13.37 14.36C12.94 14.68 12.53 14.92 12.12 15.09L11.06 15.52L10.9 16.65L10.7 18H9.29996L9.10996 16.65L8.94996 15.52L7.88996 15.09C7.45996 14.91 7.05996 14.68 6.65996 14.38L5.74996 13.68L4.68996 14.11L3.41996 14.62L2.71996 13.41L3.79996 12.57L4.68996 11.87L4.54996 10.74C4.51996 10.43 4.49996 10.2 4.49996 10C4.49996 9.80005 4.51996 9.57005 4.54996 9.27005L4.68996 8.14005L3.79996 7.44005L2.71996 6.60005L3.41996 5.39005L4.68996 5.90005L5.72996 6.32005L6.62996 5.64005C7.05996 5.32005 7.46996 5.08005 7.87996 4.91005L8.93996 4.48005L9.09996 3.35005L9.29996 2.00005H10.69L10.88 3.35005L11.04 4.48005L12.1 4.91005C12.53 5.09005 12.93 5.32005 13.33 5.62005L14.24 6.32005L15.3 5.89005L16.57 5.38005L17.27 6.59005L16.2 7.44005L15.31 8.14005L15.45 9.27005ZM9.99996 6.00005C7.78996 6.00005 5.99996 7.79005 5.99996 10C5.99996 12.21 7.78996 14 9.99996 14C12.21 14 14 12.21 14 10C14 7.79005 12.21 6.00005 9.99996 6.00005ZM9.99996 12C8.89996 12 7.99996 11.1 7.99996 10C7.99996 8.90005 8.89996 8.00005 9.99996 8.00005C11.1 8.00005 12 8.90005 12 10C12 11.1 11.1 12 9.99996 12Z" fill="#244469"/>
</svg>
