<svg width="20" height="20" viewBox="0 0 20 20" fill="none" xmlns="http://www.w3.org/2000/svg">
<mask id="path-1-inside-1_156_1599" fill="white">
<path d="M8.3335 4.37533V4.58366H11.6668V4.37533C11.6668 3.9333 11.4912 3.50937 11.1787 3.19681C10.8661 2.88425 10.4422 2.70866 10.0002 2.70866C9.55814 2.70866 9.13421 2.88425 8.82165 3.19681C8.50909 3.50937 8.3335 3.9333 8.3335 4.37533ZM7.29183 4.58366V4.37533C7.29183 3.65703 7.57717 2.96816 8.08508 2.46024C8.59299 1.95233 9.28187 1.66699 10.0002 1.66699C10.7185 1.66699 11.4073 1.95233 11.9152 2.46024C12.4232 2.96816 12.7085 3.65703 12.7085 4.37533V4.58366H17.396C17.5341 4.58366 17.6666 4.63853 17.7643 4.73621C17.862 4.83388 17.9168 4.96636 17.9168 5.10449C17.9168 5.24263 17.862 5.3751 17.7643 5.47278C17.6666 5.57045 17.5341 5.62533 17.396 5.62533H16.1806L15.3472 15.5653C15.2839 16.3202 14.9393 17.0237 14.3818 17.5364C13.8242 18.0492 13.0943 18.3337 12.3368 18.3337H7.6635C6.90608 18.3336 6.17632 18.049 5.61883 17.5363C5.06134 17.0235 4.71681 16.3201 4.6535 15.5653L3.82016 5.62533H2.60433C2.4662 5.62533 2.33372 5.57045 2.23604 5.47278C2.13837 5.3751 2.0835 5.24263 2.0835 5.10449C2.0835 4.96636 2.13837 4.83388 2.23604 4.73621C2.33372 4.63853 2.4662 4.58366 2.60433 4.58366H7.29183ZM5.69141 15.4782C5.73289 15.9728 5.95862 16.4336 6.32387 16.7696C6.68913 17.1055 7.16725 17.292 7.6635 17.292H12.3368C12.8331 17.2921 13.3114 17.1056 13.6767 16.7697C14.0421 16.4338 14.2678 15.9728 14.3093 15.4782L15.1352 5.62533H4.86516L5.69141 15.4782ZM8.9585 8.43783C8.9585 8.36943 8.94502 8.3017 8.91885 8.23851C8.89268 8.17532 8.85431 8.1179 8.80595 8.06954C8.75758 8.02118 8.70017 7.98281 8.63698 7.95664C8.57379 7.93046 8.50606 7.91699 8.43766 7.91699C8.36927 7.91699 8.30154 7.93046 8.23835 7.95664C8.17516 7.98281 8.11774 8.02118 8.06938 8.06954C8.02101 8.1179 7.98265 8.17532 7.95648 8.23851C7.9303 8.3017 7.91683 8.36943 7.91683 8.43783V14.4795C7.91683 14.5479 7.9303 14.6156 7.95648 14.6788C7.98265 14.742 8.02101 14.7994 8.06938 14.8478C8.11774 14.8961 8.17516 14.9345 8.23835 14.9607C8.30154 14.9869 8.36927 15.0003 8.43766 15.0003C8.50606 15.0003 8.57379 14.9869 8.63698 14.9607C8.70017 14.9345 8.75758 14.8961 8.80595 14.8478C8.85431 14.7994 8.89268 14.742 8.91885 14.6788C8.94502 14.6156 8.9585 14.5479 8.9585 14.4795V8.43783ZM11.5627 7.91699C11.8502 7.91699 12.0835 8.15033 12.0835 8.43783V14.4795C12.0835 14.6176 12.0286 14.7501 11.9309 14.8478C11.8333 14.9455 11.7008 15.0003 11.5627 15.0003C11.4245 15.0003 11.2921 14.9455 11.1944 14.8478C11.0967 14.7501 11.0418 14.6176 11.0418 14.4795V8.43783C11.0418 8.15033 11.2752 7.91699 11.5627 7.91699Z"/>
</mask>
<path d="M8.3335 4.37533V4.58366H11.6668V4.37533C11.6668 3.9333 11.4912 3.50937 11.1787 3.19681C10.8661 2.88425 10.4422 2.70866 10.0002 2.70866C9.55814 2.70866 9.13421 2.88425 8.82165 3.19681C8.50909 3.50937 8.3335 3.9333 8.3335 4.37533ZM7.29183 4.58366V4.37533C7.29183 3.65703 7.57717 2.96816 8.08508 2.46024C8.59299 1.95233 9.28187 1.66699 10.0002 1.66699C10.7185 1.66699 11.4073 1.95233 11.9152 2.46024C12.4232 2.96816 12.7085 3.65703 12.7085 4.37533V4.58366H17.396C17.5341 4.58366 17.6666 4.63853 17.7643 4.73621C17.862 4.83388 17.9168 4.96636 17.9168 5.10449C17.9168 5.24263 17.862 5.3751 17.7643 5.47278C17.6666 5.57045 17.5341 5.62533 17.396 5.62533H16.1806L15.3472 15.5653C15.2839 16.3202 14.9393 17.0237 14.3818 17.5364C13.8242 18.0492 13.0943 18.3337 12.3368 18.3337H7.6635C6.90608 18.3336 6.17632 18.049 5.61883 17.5363C5.06134 17.0235 4.71681 16.3201 4.6535 15.5653L3.82016 5.62533H2.60433C2.4662 5.62533 2.33372 5.57045 2.23604 5.47278C2.13837 5.3751 2.0835 5.24263 2.0835 5.10449C2.0835 4.96636 2.13837 4.83388 2.23604 4.73621C2.33372 4.63853 2.4662 4.58366 2.60433 4.58366H7.29183ZM5.69141 15.4782C5.73289 15.9728 5.95862 16.4336 6.32387 16.7696C6.68913 17.1055 7.16725 17.292 7.6635 17.292H12.3368C12.8331 17.2921 13.3114 17.1056 13.6767 16.7697C14.0421 16.4338 14.2678 15.9728 14.3093 15.4782L15.1352 5.62533H4.86516L5.69141 15.4782ZM8.9585 8.43783C8.9585 8.36943 8.94502 8.3017 8.91885 8.23851C8.89268 8.17532 8.85431 8.1179 8.80595 8.06954C8.75758 8.02118 8.70017 7.98281 8.63698 7.95664C8.57379 7.93046 8.50606 7.91699 8.43766 7.91699C8.36927 7.91699 8.30154 7.93046 8.23835 7.95664C8.17516 7.98281 8.11774 8.02118 8.06938 8.06954C8.02101 8.1179 7.98265 8.17532 7.95648 8.23851C7.9303 8.3017 7.91683 8.36943 7.91683 8.43783V14.4795C7.91683 14.5479 7.9303 14.6156 7.95648 14.6788C7.98265 14.742 8.02101 14.7994 8.06938 14.8478C8.11774 14.8961 8.17516 14.9345 8.23835 14.9607C8.30154 14.9869 8.36927 15.0003 8.43766 15.0003C8.50606 15.0003 8.57379 14.9869 8.63698 14.9607C8.70017 14.9345 8.75758 14.8961 8.80595 14.8478C8.85431 14.7994 8.89268 14.742 8.91885 14.6788C8.94502 14.6156 8.9585 14.5479 8.9585 14.4795V8.43783ZM11.5627 7.91699C11.8502 7.91699 12.0835 8.15033 12.0835 8.43783V14.4795C12.0835 14.6176 12.0286 14.7501 11.9309 14.8478C11.8333 14.9455 11.7008 15.0003 11.5627 15.0003C11.4245 15.0003 11.2921 14.9455 11.1944 14.8478C11.0967 14.7501 11.0418 14.6176 11.0418 14.4795V8.43783C11.0418 8.15033 11.2752 7.91699 11.5627 7.91699Z" fill="#363636"/>
<path d="M8.3335 4.58366H6.3335V6.58366H8.3335V4.58366ZM11.6668 4.58366V6.58366H13.6668V4.58366H11.6668ZM10.0002 2.70866V0.708659V2.70866ZM7.29183 4.58366V6.58366H9.29183V4.58366H7.29183ZM7.29183 4.37533H9.29183H7.29183ZM10.0002 1.66699V-0.333008V1.66699ZM12.7085 4.37533H14.7085H12.7085ZM12.7085 4.58366H10.7085V6.58366H12.7085V4.58366ZM16.1806 5.62533V3.62533H14.3412L14.1876 5.45824L16.1806 5.62533ZM15.3472 15.5653L17.3402 15.7325L17.3403 15.7324L15.3472 15.5653ZM12.3368 18.3337L12.3369 16.3337H12.3368V18.3337ZM7.6635 18.3337L7.66332 20.3337H7.6635V18.3337ZM4.6535 15.5653L2.66049 15.7324L2.6605 15.7325L4.6535 15.5653ZM3.82016 5.62533L5.81317 5.45824L5.65951 3.62533H3.82016V5.62533ZM2.60433 4.58366V2.58366V4.58366ZM5.69141 15.4782L3.69841 15.6454L3.69841 15.6454L5.69141 15.4782ZM7.6635 17.292L7.66334 19.292H7.6635V17.292ZM12.3368 17.292L12.3371 15.292H12.3368V17.292ZM14.3093 15.4782L16.3023 15.6454L16.3023 15.6453L14.3093 15.4782ZM15.1352 5.62533L17.1282 5.79237L17.3098 3.62533H15.1352V5.62533ZM4.86516 5.62533V3.62533H2.69043L2.87216 5.79246L4.86516 5.62533ZM8.9585 8.43783H6.9585H8.9585ZM7.91683 8.43783H9.91683H7.91683ZM7.91683 14.4795H9.91683H7.91683ZM8.9585 14.4795H6.9585H8.9585ZM12.0835 14.4795H10.0835H12.0835ZM11.5627 15.0003V17.0003V15.0003ZM6.3335 4.37533V4.58366H10.3335V4.37533H6.3335ZM8.3335 6.58366H11.6668V2.58366H8.3335V6.58366ZM13.6668 4.58366V4.37533H9.66683V4.58366H13.6668ZM13.6668 4.37533C13.6668 3.40286 13.2805 2.47023 12.5929 1.7826L9.76446 4.61103C9.70195 4.54852 9.66683 4.46373 9.66683 4.37533H13.6668ZM12.5929 1.7826C11.9053 1.09497 10.9726 0.708659 10.0002 0.708659V4.70866C9.91176 4.70866 9.82697 4.67354 9.76446 4.61103L12.5929 1.7826ZM10.0002 0.708659C9.0277 0.708659 8.09507 1.09497 7.40744 1.7826L10.2359 4.61103C10.1734 4.67354 10.0886 4.70866 10.0002 4.70866V0.708659ZM7.40744 1.7826C6.71981 2.47023 6.3335 3.40286 6.3335 4.37533H10.3335C10.3335 4.46373 10.2984 4.54852 10.2359 4.61103L7.40744 1.7826ZM9.29183 4.58366V4.37533H5.29183V4.58366H9.29183ZM9.29183 4.37533C9.29183 4.18746 9.36646 4.0073 9.4993 3.87446L6.67087 1.04603C5.78789 1.92901 5.29183 3.1266 5.29183 4.37533H9.29183ZM9.4993 3.87446C9.63213 3.74162 9.8123 3.66699 10.0002 3.66699V-0.333008C8.75143 -0.333008 7.55385 0.163047 6.67087 1.04603L9.4993 3.87446ZM10.0002 3.66699C10.188 3.66699 10.3682 3.74162 10.501 3.87446L13.3295 1.04603C12.4465 0.163047 11.2489 -0.333008 10.0002 -0.333008V3.66699ZM10.501 3.87446C10.6339 4.0073 10.7085 4.18746 10.7085 4.37533H14.7085C14.7085 3.1266 14.2124 1.92901 13.3295 1.04603L10.501 3.87446ZM10.7085 4.37533V4.58366H14.7085V4.37533H10.7085ZM12.7085 6.58366H17.396V2.58366H12.7085V6.58366ZM17.396 6.58366C17.0037 6.58366 16.6275 6.42782 16.3501 6.15042L19.1785 3.32199C18.7057 2.84924 18.0646 2.58366 17.396 2.58366V6.58366ZM16.3501 6.15042C16.0727 5.87302 15.9168 5.49679 15.9168 5.10449H19.9168C19.9168 4.43593 19.6512 3.79474 19.1785 3.32199L16.3501 6.15042ZM15.9168 5.10449C15.9168 4.7122 16.0727 4.33596 16.3501 4.05856L19.1785 6.88699C19.6512 6.41424 19.9168 5.77305 19.9168 5.10449H15.9168ZM16.3501 4.05856C16.6275 3.78116 17.0037 3.62533 17.396 3.62533V7.62533C18.0646 7.62533 18.7057 7.35974 19.1785 6.88699L16.3501 4.05856ZM17.396 3.62533H16.1806V7.62533H17.396V3.62533ZM14.1876 5.45824L13.3542 15.3982L17.3403 15.7324L18.1736 5.79241L14.1876 5.45824ZM13.3542 15.3982C13.3328 15.6532 13.2164 15.891 13.028 16.0642L15.7355 19.0086C16.6623 18.1564 17.235 16.9871 17.3402 15.7325L13.3542 15.3982ZM13.028 16.0642C12.8396 16.2375 12.5929 16.3337 12.3369 16.3337L12.3367 20.3337C13.5957 20.3337 14.8088 19.8608 15.7355 19.0086L13.028 16.0642ZM12.3368 16.3337H7.6635V20.3337H12.3368V16.3337ZM7.66367 16.3337C7.40771 16.3336 7.16111 16.2375 6.97271 16.0642L4.26495 19.0083C5.19153 19.8605 6.40444 20.3335 7.66332 20.3337L7.66367 16.3337ZM6.97271 16.0642C6.78432 15.8909 6.66789 15.6532 6.6465 15.3982L2.6605 15.7325C2.76572 16.987 3.33836 18.1562 4.26495 19.0083L6.97271 16.0642ZM6.6465 15.3982L5.81317 5.45824L1.82715 5.79241L2.66049 15.7324L6.6465 15.3982ZM3.82016 3.62533H2.60433V7.62533H3.82016V3.62533ZM2.60433 3.62533C2.99663 3.62533 3.37286 3.78117 3.65026 4.05856L0.821831 6.88699C1.29458 7.35974 1.93576 7.62533 2.60433 7.62533V3.62533ZM3.65026 4.05856C3.92766 4.33596 4.0835 4.71219 4.0835 5.10449H0.0834961C0.0834961 5.77306 0.349083 6.41424 0.821831 6.88699L3.65026 4.05856ZM4.0835 5.10449C4.0835 5.49679 3.92766 5.87302 3.65026 6.15042L0.821831 3.32199C0.349083 3.79474 0.0834961 4.43593 0.0834961 5.10449H4.0835ZM3.65026 6.15042C3.37286 6.42782 2.99663 6.58366 2.60433 6.58366V2.58366C1.93576 2.58366 1.29458 2.84925 0.821831 3.32199L3.65026 6.15042ZM2.60433 6.58366H7.29183V2.58366H2.60433V6.58366ZM3.69841 15.6454C3.7818 16.6396 4.23564 17.5662 4.96999 18.2416L7.67776 15.2975C7.6816 15.301 7.68398 15.3059 7.68442 15.3111L3.69841 15.6454ZM4.96999 18.2416C5.70434 18.917 6.66562 19.2919 7.66334 19.292L7.66366 15.292C7.66888 15.292 7.67391 15.294 7.67776 15.2975L4.96999 18.2416ZM7.6635 19.292H12.3368V15.292H7.6635V19.292ZM12.3366 19.292C13.3344 19.2921 14.2959 18.9173 15.0304 18.2419L12.323 15.2975C12.3268 15.294 12.3319 15.292 12.3371 15.292L12.3366 19.292ZM15.0304 18.2419C15.765 17.5665 16.2189 16.6398 16.3023 15.6454L12.3163 15.3111C12.3168 15.3059 12.3191 15.301 12.323 15.2975L15.0304 18.2419ZM16.3023 15.6453L17.1282 5.79237L13.1422 5.45828L12.3163 15.3112L16.3023 15.6453ZM15.1352 3.62533H4.86516V7.62533H15.1352V3.62533ZM2.87216 5.79246L3.69841 15.6454L7.68442 15.3111L6.85817 5.4582L2.87216 5.79246ZM10.9585 8.43783C10.9585 8.10679 10.8933 7.77899 10.7666 7.47314L7.07109 9.00388C6.99675 8.82441 6.9585 8.63207 6.9585 8.43783L10.9585 8.43783ZM10.7666 7.47314C10.6399 7.16731 10.4542 6.88942 10.2202 6.65533L7.39173 9.48375C7.25437 9.34639 7.14542 9.18333 7.07109 9.00388L10.7666 7.47314ZM10.2202 6.65533C9.98607 6.42124 9.70818 6.23556 9.40234 6.10888L7.87161 9.8044C7.69216 9.73007 7.5291 9.62111 7.39173 9.48375L10.2202 6.65533ZM9.40234 6.10888C9.0965 5.98219 8.7687 5.91699 8.43766 5.91699V9.91699C8.24342 9.91699 8.05107 9.87873 7.87161 9.8044L9.40234 6.10888ZM8.43766 5.91699C8.10663 5.91699 7.77883 5.98219 7.47298 6.10888L9.00372 9.8044C8.82425 9.87873 8.63191 9.91699 8.43766 9.91699V5.91699ZM7.47298 6.10888C7.16715 6.23556 6.88925 6.42124 6.65516 6.65533L9.48359 9.48375C9.34623 9.62111 9.18317 9.73007 9.00372 9.8044L7.47298 6.10888ZM6.65516 6.65533C6.42108 6.88942 6.2354 7.16731 6.10872 7.47314L9.80423 9.00388C9.7299 9.18333 9.62095 9.34639 9.48359 9.48375L6.65516 6.65533ZM6.10872 7.47314C5.98203 7.77899 5.91683 8.10679 5.91683 8.43783L9.91683 8.43783C9.91683 8.63207 9.87857 8.82441 9.80423 9.00388L6.10872 7.47314ZM5.91683 8.43783V14.4795H9.91683V8.43783H5.91683ZM5.91683 14.4795C5.91683 14.8105 5.98203 15.1383 6.10872 15.4442L9.80423 13.9134C9.87857 14.0929 9.91683 14.2853 9.91683 14.4795H5.91683ZM6.10872 15.4442C6.2354 15.75 6.42108 16.0279 6.65516 16.262L9.48359 13.4336C9.62095 13.5709 9.7299 13.734 9.80423 13.9134L6.10872 15.4442ZM6.65516 16.262C6.88925 16.4961 7.16715 16.6818 7.47298 16.8084L9.00372 13.1129C9.18317 13.1873 9.34623 13.2962 9.48359 13.4336L6.65516 16.262ZM7.47298 16.8084C7.77883 16.9351 8.10663 17.0003 8.43766 17.0003V13.0003C8.63191 13.0003 8.82425 13.0386 9.00372 13.1129L7.47298 16.8084ZM8.43766 17.0003C8.7687 17.0003 9.0965 16.9351 9.40234 16.8084L7.87161 13.1129C8.05107 13.0386 8.24342 13.0003 8.43766 13.0003V17.0003ZM9.40234 16.8084C9.70818 16.6818 9.98607 16.4961 10.2202 16.262L7.39173 13.4336C7.5291 13.2962 7.69216 13.1873 7.87161 13.1129L9.40234 16.8084ZM10.2202 16.262C10.4542 16.0279 10.6399 15.75 10.7666 15.4442L7.07109 13.9134C7.14543 13.734 7.25438 13.5709 7.39173 13.4336L10.2202 16.262ZM10.7666 15.4442C10.8933 15.1383 10.9585 14.8105 10.9585 14.4795H6.9585C6.9585 14.2853 6.99675 14.0929 7.07109 13.9134L10.7666 15.4442ZM10.9585 14.4795V8.43783H6.9585V14.4795H10.9585ZM11.5627 9.91699C10.7456 9.91699 10.0835 9.25489 10.0835 8.43783H14.0835C14.0835 7.04576 12.9547 5.91699 11.5627 5.91699V9.91699ZM10.0835 8.43783V14.4795H14.0835V8.43783H10.0835ZM10.0835 14.4795C10.0835 14.0872 10.2393 13.711 10.5167 13.4336L13.3452 16.262C13.8179 15.7892 14.0835 15.1481 14.0835 14.4795H10.0835ZM10.5167 13.4336C10.7941 13.1562 11.1704 13.0003 11.5627 13.0003V17.0003C12.2312 17.0003 12.8724 16.7347 13.3452 16.262L10.5167 13.4336ZM11.5627 13.0003C11.955 13.0003 12.3312 13.1562 12.6086 13.4336L9.78016 16.262C10.2529 16.7347 10.8941 17.0003 11.5627 17.0003V13.0003ZM12.6086 13.4336C12.886 13.711 13.0418 14.0872 13.0418 14.4795H9.04183C9.04183 15.1481 9.30741 15.7892 9.78016 16.262L12.6086 13.4336ZM13.0418 14.4795V8.43783H9.04183V14.4795H13.0418ZM13.0418 8.43783C13.0418 9.25489 12.3797 9.91699 11.5627 9.91699V5.91699C10.1706 5.91699 9.04183 7.04576 9.04183 8.43783H13.0418Z" fill="#363636" mask="url(#path-1-inside-1_156_1599)"/>
</svg>
