<svg width="52" height="24" viewBox="0 0 52 24" fill="none" xmlns="http://www.w3.org/2000/svg">
<path d="M24.608 7.76V6.432H27.616V18H26.144V7.76H24.608ZM37.493 7.696H31.877V11.344C32.1223 11.0027 32.485 10.7253 32.965 10.512C33.445 10.288 33.9623 10.176 34.517 10.176C35.4023 10.176 36.1223 10.3627 36.677 10.736C37.2317 11.0987 37.6263 11.5733 37.861 12.16C38.1063 12.736 38.229 13.3493 38.229 14C38.229 14.768 38.085 15.456 37.797 16.064C37.509 16.672 37.0663 17.152 36.469 17.504C35.8823 17.856 35.1517 18.032 34.277 18.032C33.157 18.032 32.2503 17.744 31.557 17.168C30.8637 16.592 30.4423 15.824 30.293 14.864H31.717C31.8557 15.472 32.149 15.9467 32.597 16.288C33.045 16.6293 33.6103 16.8 34.293 16.8C35.1357 16.8 35.7703 16.5493 36.197 16.048C36.6237 15.536 36.837 14.864 36.837 14.032C36.837 13.2 36.6237 12.56 36.197 12.112C35.7703 11.6533 35.141 11.424 34.309 11.424C33.7437 11.424 33.2477 11.5627 32.821 11.84C32.405 12.1067 32.101 12.4747 31.909 12.944H30.533V6.416H37.493V7.696ZM39.8439 9.04C39.8439 8.31467 40.0625 7.73867 40.4999 7.312C40.9372 6.87467 41.4972 6.656 42.1799 6.656C42.8625 6.656 43.4225 6.87467 43.8599 7.312C44.2972 7.73867 44.5159 8.31467 44.5159 9.04C44.5159 9.776 44.2972 10.3627 43.8599 10.8C43.4225 11.2267 42.8625 11.44 42.1799 11.44C41.4972 11.44 40.9372 11.2267 40.4999 10.8C40.0625 10.3627 39.8439 9.776 39.8439 9.04ZM49.1879 6.832L42.7079 18H41.2679L47.7479 6.832H49.1879ZM42.1799 7.552C41.8172 7.552 41.5292 7.68 41.3159 7.936C41.1132 8.18133 41.0119 8.54933 41.0119 9.04C41.0119 9.53067 41.1132 9.904 41.3159 10.16C41.5292 10.416 41.8172 10.544 42.1799 10.544C42.5425 10.544 42.8305 10.416 43.0439 10.16C43.2572 9.89333 43.3639 9.52 43.3639 9.04C43.3639 8.54933 43.2572 8.18133 43.0439 7.936C42.8305 7.68 42.5425 7.552 42.1799 7.552ZM45.9719 15.792C45.9719 15.056 46.1905 14.4747 46.6279 14.048C47.0652 13.6107 47.6252 13.392 48.3079 13.392C48.9905 13.392 49.5452 13.6107 49.9719 14.048C50.4092 14.4747 50.6279 15.056 50.6279 15.792C50.6279 16.5173 50.4092 17.0987 49.9719 17.536C49.5452 17.9733 48.9905 18.192 48.3079 18.192C47.6252 18.192 47.0652 17.9787 46.6279 17.552C46.1905 17.1147 45.9719 16.528 45.9719 15.792ZM48.2919 14.304C47.9292 14.304 47.6412 14.432 47.4279 14.688C47.2145 14.9333 47.1079 15.3013 47.1079 15.792C47.1079 16.272 47.2145 16.64 47.4279 16.896C47.6412 17.1413 47.9292 17.264 48.2919 17.264C48.6545 17.264 48.9425 17.1413 49.1559 16.896C49.3692 16.64 49.4759 16.272 49.4759 15.792C49.4759 15.3013 49.3692 14.9333 49.1559 14.688C48.9425 14.432 48.6545 14.304 48.2919 14.304Z" fill="#969696"/>
<path d="M21.9199 6.62C21.8185 6.37565 21.6243 6.18147 21.3799 6.08C21.2597 6.02876 21.1306 6.00158 20.9999 6H15.9999C15.7347 6 15.4804 6.10536 15.2928 6.29289C15.1053 6.48043 14.9999 6.73478 14.9999 7C14.9999 7.26522 15.1053 7.51957 15.2928 7.70711C15.4804 7.89464 15.7347 8 15.9999 8H18.5899L12.9999 13.59L9.70994 10.29C9.61698 10.1963 9.50637 10.1219 9.38452 10.0711C9.26266 10.0203 9.13195 9.9942 8.99994 9.9942C8.86793 9.9942 8.73722 10.0203 8.61536 10.0711C8.4935 10.1219 8.3829 10.1963 8.28994 10.29L2.28994 16.29C2.19621 16.383 2.12182 16.4936 2.07105 16.6154C2.02028 16.7373 1.99414 16.868 1.99414 17C1.99414 17.132 2.02028 17.2627 2.07105 17.3846C2.12182 17.5064 2.19621 17.617 2.28994 17.71C2.3829 17.8037 2.4935 17.8781 2.61536 17.9289C2.73722 17.9797 2.86793 18.0058 2.99994 18.0058C3.13195 18.0058 3.26266 17.9797 3.38452 17.9289C3.50637 17.8781 3.61698 17.8037 3.70994 17.71L8.99994 12.41L12.2899 15.71C12.3829 15.8037 12.4935 15.8781 12.6154 15.9289C12.7372 15.9797 12.8679 16.0058 12.9999 16.0058C13.132 16.0058 13.2627 15.9797 13.3845 15.9289C13.5064 15.8781 13.617 15.8037 13.7099 15.71L19.9999 9.41V12C19.9999 12.2652 20.1053 12.5196 20.2928 12.7071C20.4804 12.8946 20.7347 13 20.9999 13C21.2652 13 21.5195 12.8946 21.707 12.7071C21.8946 12.5196 21.9999 12.2652 21.9999 12V7C21.9984 6.86932 21.9712 6.74022 21.9199 6.62Z" fill="#969696"/>
</svg>
